<svg xmlns="http://www.w3.org/2000/svg" xmlns:xlink="http://www.w3.org/1999/xlink" width="337" zoomAndPan="magnify" viewBox="0 0 252.75 95.249998" height="127" preserveAspectRatio="xMidYMid meet" version="1.0"><defs><g/><clipPath id="c49f3310da"><path d="M 213 4 L 246 4 L 246 38 L 213 38 Z M 213 4 " clip-rule="nonzero"/></clipPath><clipPath id="da8f6c55de"><path d="M 208.820312 7.726562 L 244.546875 0.433594 L 251.542969 34.699219 L 215.820312 41.996094 Z M 208.820312 7.726562 " clip-rule="nonzero"/></clipPath><clipPath id="58db21c92d"><path d="M 208.820312 7.726562 L 244.546875 0.433594 L 251.542969 34.699219 L 215.820312 41.996094 Z M 208.820312 7.726562 " clip-rule="nonzero"/></clipPath><clipPath id="fc08fefc06"><path d="M 191 21 L 216 21 L 216 39 L 191 39 Z M 191 21 " clip-rule="nonzero"/></clipPath><clipPath id="9cbc5eb181"><path d="M 191.515625 21.46875 L 214.457031 19.054688 L 216.714844 40.515625 L 193.773438 42.929688 Z M 191.515625 21.46875 " clip-rule="nonzero"/></clipPath><clipPath id="74c62fa786"><path d="M 214.398438 19.0625 L 191.457031 21.472656 L 193.714844 42.9375 L 216.65625 40.523438 Z M 214.398438 19.0625 " clip-rule="nonzero"/></clipPath></defs><g fill="#fff" fill-opacity="1"><g transform="translate(23.677873, 62.203046)"><g><path d="M 26.1875 -10.5 L 9.359375 -10.5 C 9.359375 -8.863281 9.882812 -7.65625 10.9375 -6.875 C 12 -6.09375 13.148438 -5.703125 14.390625 -5.703125 C 15.679688 -5.703125 16.703125 -5.875 17.453125 -6.21875 C 18.210938 -6.5625 19.070312 -7.25 20.03125 -8.28125 L 25.828125 -5.390625 C 23.410156 -1.347656 19.398438 0.671875 13.796875 0.671875 C 10.296875 0.671875 7.296875 -0.523438 4.796875 -2.921875 C 2.296875 -5.316406 1.046875 -8.203125 1.046875 -11.578125 C 1.046875 -14.953125 2.296875 -17.847656 4.796875 -20.265625 C 7.296875 -22.679688 10.296875 -23.890625 13.796875 -23.890625 C 17.472656 -23.890625 20.460938 -22.820312 22.765625 -20.6875 C 25.078125 -18.5625 26.234375 -15.523438 26.234375 -11.578125 C 26.234375 -11.035156 26.21875 -10.675781 26.1875 -10.5 Z M 9.59375 -14.921875 L 18.40625 -14.921875 C 18.226562 -16.128906 17.753906 -17.054688 16.984375 -17.703125 C 16.210938 -18.359375 15.222656 -18.6875 14.015625 -18.6875 C 12.691406 -18.6875 11.640625 -18.335938 10.859375 -17.640625 C 10.078125 -16.941406 9.65625 -16.035156 9.59375 -14.921875 Z M 9.59375 -14.921875 "/></g></g></g><g fill="#fff" fill-opacity="1"><g transform="translate(50.951438, 62.203046)"><g><path d="M 29.578125 0 L 19.90625 0 L 14.796875 -6.5625 L 9.6875 0 L 0 0 L 9.90625 -12.125 L 1.40625 -23.203125 L 10.765625 -23.203125 L 14.796875 -17.828125 L 18.8125 -23.203125 L 28.1875 -23.203125 L 19.671875 -12.125 Z M 29.578125 0 "/></g></g></g><g fill="#fff" fill-opacity="1"><g transform="translate(80.531719, 62.203046)"><g><path d="M 4.296875 -2.875 C 2.128906 -5.238281 1.046875 -8.140625 1.046875 -11.578125 C 1.046875 -15.015625 2.128906 -17.925781 4.296875 -20.3125 C 6.460938 -22.695312 9.222656 -23.890625 12.578125 -23.890625 C 15.648438 -23.890625 18.179688 -22.921875 20.171875 -20.984375 L 20.171875 -23.203125 L 28.1875 -23.203125 L 28.1875 0 L 20.265625 0 L 20.265625 -2.625 L 20.171875 -2.625 C 18.179688 -0.425781 15.648438 0.671875 12.578125 0.671875 C 9.222656 0.671875 6.460938 -0.507812 4.296875 -2.875 Z M 11.109375 -15.515625 C 10.066406 -14.492188 9.546875 -13.179688 9.546875 -11.578125 C 9.546875 -9.984375 10.039062 -8.679688 11.03125 -7.671875 C 12.03125 -6.660156 13.34375 -6.15625 14.96875 -6.15625 C 16.539062 -6.15625 17.832031 -6.664062 18.84375 -7.6875 C 19.851562 -8.71875 20.359375 -10.015625 20.359375 -11.578125 C 20.359375 -13.179688 19.835938 -14.492188 18.796875 -15.515625 C 17.753906 -16.535156 16.476562 -17.046875 14.96875 -17.046875 C 13.4375 -17.046875 12.148438 -16.535156 11.109375 -15.515625 Z M 11.109375 -15.515625 "/></g></g></g><g fill="#fff" fill-opacity="1"><g transform="translate(111.423659, 62.203046)"><g><path d="M 2.71875 0 L 2.71875 -23.203125 L 10.71875 -23.203125 L 10.71875 -20.765625 L 10.8125 -20.765625 C 12.894531 -22.847656 15.109375 -23.890625 17.453125 -23.890625 C 19.148438 -23.890625 20.734375 -23.539062 22.203125 -22.84375 C 23.679688 -22.144531 24.800781 -21.070312 25.5625 -19.625 C 27.90625 -22.46875 30.46875 -23.890625 33.25 -23.890625 C 35.71875 -23.890625 37.84375 -23.191406 39.625 -21.796875 C 41.40625 -20.410156 42.296875 -18.242188 42.296875 -15.296875 L 42.296875 0 L 34.28125 0 L 34.28125 -13.125 C 34.28125 -14.351562 33.941406 -15.378906 33.265625 -16.203125 C 32.585938 -17.035156 31.570312 -17.453125 30.21875 -17.453125 C 29.039062 -17.453125 28.140625 -17.097656 27.515625 -16.390625 C 26.898438 -15.679688 26.5625 -14.832031 26.5 -13.84375 L 26.5 0 L 18.5 0 L 18.5 -13.125 C 18.5 -14.351562 18.160156 -15.378906 17.484375 -16.203125 C 16.804688 -17.035156 15.789062 -17.453125 14.4375 -17.453125 C 13.195312 -17.453125 12.265625 -17.066406 11.640625 -16.296875 C 11.023438 -15.535156 10.71875 -14.628906 10.71875 -13.578125 L 10.71875 0 Z M 2.71875 0 "/></g></g></g><g fill="#fff" fill-opacity="1"><g transform="translate(155.974999, 62.203046)"><g><path d="M 3.484375 -36.140625 C 4.421875 -37.078125 5.535156 -37.546875 6.828125 -37.546875 C 8.128906 -37.546875 9.242188 -37.078125 10.171875 -36.140625 C 11.109375 -35.203125 11.578125 -34.082031 11.578125 -32.78125 C 11.578125 -31.488281 11.109375 -30.375 10.171875 -29.4375 C 9.242188 -28.507812 8.128906 -28.046875 6.828125 -28.046875 C 5.535156 -28.046875 4.421875 -28.507812 3.484375 -29.4375 C 2.546875 -30.375 2.078125 -31.488281 2.078125 -32.78125 C 2.078125 -34.082031 2.546875 -35.203125 3.484375 -36.140625 Z M 2.71875 -23.203125 L 2.71875 0 L 10.71875 0 L 10.71875 -23.203125 Z M 2.71875 -23.203125 "/></g></g></g><g fill="#fff" fill-opacity="1"><g transform="translate(169.634401, 62.203046)"><g><path d="M 4.078125 -23.203125 L 4.078125 -28.140625 C 4.097656 -31.609375 4.90625 -34.378906 6.5 -36.453125 C 8.101562 -38.535156 10.320312 -39.578125 13.15625 -39.578125 C 14.363281 -39.578125 15.519531 -39.40625 16.625 -39.0625 C 17.726562 -38.71875 18.519531 -38.363281 19 -38 L 19.765625 -37.5 L 16.96875 -31.84375 C 16.238281 -32.269531 15.4375 -32.484375 14.5625 -32.484375 C 13.570312 -32.484375 12.910156 -32.140625 12.578125 -31.453125 C 12.242188 -30.773438 12.078125 -29.59375 12.078125 -27.90625 L 12.078125 -23.203125 L 17.421875 -23.203125 L 17.421875 -17.09375 L 12.078125 -17.09375 L 12.078125 0 L 4.078125 0 L 4.078125 -17.09375 L 0.71875 -17.09375 L 0.71875 -23.203125 Z M 4.078125 -23.203125 "/></g></g></g><g fill="#fff" fill-opacity="1"><g transform="translate(186.595574, 62.203046)"><g><path d="M 20.3125 -23.203125 L 29.53125 -23.203125 L 11.3125 11.765625 L 2.078125 11.765625 L 10.09375 -3.625 L -0.90625 -23.203125 L 8.328125 -23.203125 L 14.796875 -11.3125 Z M 20.3125 -23.203125 "/></g></g></g><g clip-path="url(#c49f3310da)"><g clip-path="url(#da8f6c55de)"><g clip-path="url(#58db21c92d)"><path fill="#00bf63" d="M 237.875 8.097656 C 220.972656 11.46875 213.519531 21.203125 216.074219 37.683594 C 216.105469 37.890625 215.808594 37.960938 215.738281 37.765625 C 213.898438 32.585938 213.050781 27.695312 213.542969 23.195312 C 215.160156 8.339844 231.824219 3.03125 244.816406 4.976562 C 245.464844 5.074219 245.746094 5.824219 245.324219 6.328125 C 237.433594 15.796875 242.921875 36.113281 218.148438 31.878906 C 219.457031 20.007812 225.398438 11.605469 237.875 8.097656 " fill-opacity="1" fill-rule="evenodd"/></g></g></g><g clip-path="url(#fc08fefc06)"><g clip-path="url(#9cbc5eb181)"><g clip-path="url(#74c62fa786)"><path fill="#7ed957" d="M 197.03125 24.792969 C 207.816406 23.613281 214.136719 28.039062 215.730469 38.414062 C 215.75 38.542969 215.941406 38.53125 215.949219 38.398438 C 216.070312 34.941406 215.652344 31.847656 214.503906 29.238281 C 210.710938 20.632812 199.703125 20.609375 192.273438 24.238281 C 191.902344 24.421875 191.878906 24.925781 192.226562 25.148438 C 198.757812 29.332031 199.320312 42.566406 213.386719 35.324219 C 210.347656 28.449219 205.1875 24.53125 197.03125 24.792969 " fill-opacity="1" fill-rule="evenodd"/></g></g></g></svg>