<svg class="svg-icon" style="width: 1em;height: 1em;vertical-align: middle;fill: currentColor;overflow: hidden;" viewBox="0 0 1024 1024" version="1.1" xmlns="http://www.w3.org/2000/svg"><path d="M853.0504 313.136A58.496 58.496 0 0 1 955.3544 256.32 511.632 511.632 0 1 1 767.8344 68.8a62.912 62.912 0 0 1 22.72 79.568 62.912 62.912 0 0 1-79.552 22.72 399.584 399.584 0 0 0-397.712 693.184 401.504 401.504 0 0 0 545.44-147.728c62.496-130.672 62.496-284.08-5.68-403.408z" fill="#999999" /><path d="M511.8344 512m-173.296 0a173.296 173.296 0 1 0 346.592 0 173.296 173.296 0 1 0-346.592 0Z" fill="#12ADA9" /></svg>